<svg id="Layer_1" data-name="Layer 1" xmlns="http://www.w3.org/2000/svg" viewBox="0 0 217.53 85.28"><defs><style>.cls-1{fill:#231f20;}</style></defs><path class="cls-1" d="M31.61,67.56V41.26h1.47v26.3Z"/><path class="cls-1" d="M38.79,67.56V41.26h1.47V66.05h7.41v1.51Z"/><path class="cls-1" d="M51.31,67.56V41.26h1.48V66.05h7.4v1.51Z"/><path class="cls-1" d="M82,64.13a13.21,13.21,0,0,1-9.76,3.8A12.94,12.94,0,0,1,58.72,54.41,12.94,12.94,0,0,1,72.24,40.89,13.34,13.34,0,0,1,82,44.65a13.2,13.2,0,0,1,3.79,9.76A13.06,13.06,0,0,1,82,64.13ZM80.93,45.75a11.77,11.77,0,0,0-8.69-3.39,11.6,11.6,0,0,0-12,12,11.54,11.54,0,0,0,12,12,11.92,11.92,0,0,0,8.69-3.32,11.73,11.73,0,0,0,3.35-8.69A11.7,11.7,0,0,0,80.93,45.75Z"/><path class="cls-1" d="M92,45.24V67.56H90.47V41.07l19.64,23V41.26h1.51V68Z"/><path class="cls-1" d="M136.15,67.34a10.15,10.15,0,0,1-3.39.52q-6,0-7.77-5.71l1.51-.52q1.29,4.71,6.26,4.71a6.57,6.57,0,0,0,4.46-1.4,5.24,5.24,0,0,0,1.66-4.19,5.54,5.54,0,0,0-2-4.35,8,8,0,0,0-1.58-1.07c-.71-.39-1.62-.83-2.73-1.33a17.52,17.52,0,0,1-4.27-2.43,5.94,5.94,0,0,1,0-8.76,6.85,6.85,0,0,1,4.71-1.7c3.1,0,5.28,1.16,6.56,3.46l-1.44.63a5,5,0,0,0-1.77-1.81,6.18,6.18,0,0,0-3.35-.81,5.4,5.4,0,0,0-3.61,1.22,4.31,4.31,0,0,0,.08,6.67,20,20,0,0,0,3.68,2,25.52,25.52,0,0,1,3,1.53,10.71,10.71,0,0,1,2,1.52,7.07,7.07,0,0,1,2.14,5.24C140.39,64.09,139,66.28,136.15,67.34Z"/><path class="cls-1" d="M172.77,67.56l-5.6-22.1-8.66,22.76-8.66-22.8-5.63,22.14h-1.51l6.85-27.08L158.51,64l9-23.5,6.85,27.11Z"/><path class="cls-1" d="M177.92,67.56V41.26h1.48v26.3Z"/><path class="cls-1" d="M188.9,42.77V67.56h-1.51V42.77h-5.82V41.26h13.15v1.51Z"/><path class="cls-1" d="M25.64,45.24a10.67,10.67,0,0,0-8.62-4H8.25v1.48H17a9.24,9.24,0,0,1,7.55,3.54,12.37,12.37,0,0,1,2.69,8.1A11.8,11.8,0,0,1,24.06,63a9.59,9.59,0,0,1-7,3H8.25v1.52H17a10.75,10.75,0,0,0,8.66-4,14,14,0,0,0,3.09-9.21A13.68,13.68,0,0,0,25.64,45.24Z"/><polygon class="cls-1" points="211.18 52.35 198.37 52.35 198.37 41.26 196.9 41.26 196.9 67.56 198.37 67.56 198.37 53.86 211.18 53.86 211.18 52.35"/><path d="M210.71,34.38l-.06,1.3H21.28a2.13,2.13,0,0,0-2.2,1,2.43,2.43,0,0,1-4.14-.21,1.43,1.43,0,0,0-1.51-.82c-1.86,0-3.73,0-5.65,0v-1.3c1.9,0,3.76,0,5.62,0a1.44,1.44,0,0,0,1.52-.79,2.44,2.44,0,0,1,4.22-.17,1.85,1.85,0,0,0,2,1H210.71ZM18.5,35c-.13-.87-.58-1.4-1.47-1.36a1.41,1.41,0,0,0,.08,2.82C18,36.44,18.42,35.88,18.5,35Z"/><path d="M14.76,72.49H197.82a1.87,1.87,0,0,0,2-.95,2.43,2.43,0,0,1,4.21.16,1.43,1.43,0,0,0,1.52.8c1.86,0,3.72,0,5.62,0v1.29c-1.92,0-3.78,0-5.64,0a1.45,1.45,0,0,0-1.51.82,2.43,2.43,0,0,1-4.15.21,2.13,2.13,0,0,0-2.2-1H8.31l-.05-1.29Zm187.1,2.06a1.42,1.42,0,0,0,.07-2.83c-.89,0-1.34.5-1.47,1.36C200.54,74,201,74.55,201.86,74.55Z"/><path d="M120.1,15.9a16.84,16.84,0,0,1-.32,3,2.42,2.42,0,0,1-1.24,1.45A34.41,34.41,0,0,1,114,21.77a3.74,3.74,0,0,1-1.82,0c-2.57-.65-5.15-1.3-7.67-2.13A2.06,2.06,0,0,1,103.4,18c.1-2.5.42-5,.65-7.48a2,2,0,0,1,1.65-1.9c3-.79,5.89-1.69,8.82-2.59a1.56,1.56,0,0,1,2.25,1.07c.88,2.23,1.93,4.39,2.87,6.61a17.28,17.28,0,0,1,.62,2.16ZM105.32,9.51c2.65,2.17,4.92,4.08,7.24,5.92.82.65,2,.36,2.09-.5.31-2.68.52-5.37.79-8.37Zm6.94,6.65-7.43-6.06-.75,8.45Zm-6.57,2.68v.4l7.11,1.92.45-4.48ZM116.47,8.29l-.47,0c-.2,2.45-.39,4.91-.61,7.59l3.89-1.21ZM113.6,21.15l5-1.51c-1.08-1-1.89-1.84-2.79-2.58a1.12,1.12,0,0,0-1.89.77C113.75,18.82,113.72,19.83,113.6,21.15Zm5.49-2.1.26-3.56-3,.94Z"/></svg>